<?xml version="1.0" encoding="UTF-8"?>
<!DOCTYPE svg PUBLIC "-//W3C//DTD SVG 1.1//EN" "http://www.w3.org/Graphics/SVG/1.1/DTD/svg11.dtd">
<svg xmlns="http://www.w3.org/2000/svg" version="1.1" viewBox="0 0 73 73" stroke="none">
	<rect width="100%" height="100%" fill="#ffffff"/>
	<path d="M20,20h7v1h-7z M28,20h1v3h-1z M31,20h4v1h-4z M37,20h1v1h-1z M40,20h2v1h-2z M44,20h1v2h-1z M46,20h7v1h-7z M20,21h1v6h-1z M26,21h1v6h-1z M31,21h1v2h-1z M33,21h2v2h-2z M36,21h1v1h-1z M39,21h2v1h-2z M42,21h1v2h-1z M46,21h1v6h-1z M52,21h1v6h-1z M22,22h3v3h-3z M29,22h2v1h-2z M35,22h1v1h-1z M41,22h1v1h-1z M43,22h1v1h-1z M48,22h3v3h-3z M30,23h1v1h-1z M34,23h1v1h-1z M36,23h1v5h-1z M38,23h3v1h-3z M44,23h1v1h-1z M28,24h2v1h-2z M31,24h1v2h-1z M33,24h1v2h-1z M35,24h1v2h-1z M37,24h2v1h-2z M43,24h1v2h-1z M30,25h1v2h-1z M34,25h1v5h-1z M37,25h1v1h-1z M42,25h1v2h-1z M21,26h5v1h-5z M28,26h1v1h-1z M32,26h1v2h-1z M38,26h1v1h-1z M40,26h1v1h-1z M44,26h1v1h-1z M47,26h5v1h-5z M31,27h1v2h-1z M33,27h1v1h-1z M35,27h1v1h-1z M20,28h1v1h-1z M23,28h7v1h-7z M37,28h2v1h-2z M40,28h1v3h-1z M42,28h2v3h-2z M45,28h1v4h-1z M48,28h1v3h-1z M50,28h1v4h-1z M51,28h2v1h-2z M21,29h1v1h-1z M24,29h2v1h-2z M27,29h1v2h-1z M29,29h2v1h-2z M32,29h2v4h-2z M35,29h1v4h-1z M37,29h1v1h-1z M39,29h1v1h-1z M44,29h1v1h-1z M49,29h1v2h-1z M26,30h1v1h-1z M41,30h1v1h-1z M52,30h1v3h-1z M21,31h1v1h-1z M23,31h2v2h-2z M30,31h2v1h-2z M36,31h1v1h-1z M38,31h2v1h-2z M43,31h1v3h-1z M44,31h1v1h-1z M46,31h2v1h-2z M22,32h1v1h-1z M26,32h1v1h-1z M28,32h1v1h-1z M30,32h1v1h-1z M37,32h1v1h-1z M39,32h3v1h-3z M46,32h1v1h-1z M51,32h1v1h-1z M21,33h1v2h-1z M24,33h2v2h-2z M27,33h1v1h-1z M29,33h1v1h-1z M33,33h2v1h-2z M38,33h2v2h-2z M41,33h1v1h-1z M44,33h2v1h-2z M49,33h1v1h-1z M26,34h1v1h-1z M31,34h1v1h-1z M34,34h1v4h-1z M35,34h1v1h-1z M40,34h1v1h-1z M45,34h1v2h-1z M47,34h1v3h-1z M48,34h1v1h-1z M23,35h2v1h-2z M27,35h4v1h-4z M33,35h1v1h-1z M36,35h1v2h-1z M42,35h1v1h-1z M46,35h1v4h-1z M49,35h2v1h-2z M52,35h1v1h-1z M20,36h1v3h-1z M22,36h2v1h-2z M26,36h2v1h-2z M29,36h1v1h-1z M31,36h1v3h-1z M35,36h1v4h-1z M38,36h1v1h-1z M43,36h1v1h-1z M48,36h2v1h-2z M21,37h2v1h-2z M25,37h1v1h-1z M28,37h1v2h-1z M32,37h1v2h-1z M37,37h1v2h-1z M39,37h1v4h-1z M41,37h1v2h-1z M44,37h2v1h-2z M48,37h1v1h-1z M50,37h3v1h-3z M23,38h1v4h-1z M26,38h1v1h-1z M29,38h1v3h-1z M33,38h1v1h-1z M38,38h1v1h-1z M43,38h1v6h-1z M44,38h1v1h-1z M49,38h2v2h-2z M52,38h1v2h-1z M25,39h1v1h-1z M27,39h1v1h-1z M36,39h1v2h-1z M47,39h1v3h-1z M48,39h1v1h-1z M20,40h1v5h-1z M26,40h1v1h-1z M28,40h1v2h-1z M33,40h1v1h-1z M38,40h1v1h-1z M40,40h2v1h-2z M44,40h1v1h-1z M49,40h1v1h-1z M21,41h1v1h-1z M24,41h2v3h-2z M32,41h1v2h-1z M48,41h1v1h-1z M22,42h1v2h-1z M26,42h2v1h-2z M29,42h1v1h-1z M31,42h1v1h-1z M34,42h1v1h-1z M38,42h1v3h-1z M40,42h2v1h-2z M49,42h4v1h-4z M27,43h2v1h-2z M33,43h1v1h-1z M35,43h1v1h-1z M37,43h1v1h-1z M39,43h1v2h-1z M45,43h1v2h-1z M47,43h1v2h-1z M50,43h2v1h-2z M21,44h1v1h-1z M23,44h2v1h-2z M26,44h1v1h-1z M30,44h3v1h-3z M34,44h1v2h-1z M36,44h1v1h-1z M42,44h1v1h-1z M44,44h1v5h-1z M46,44h1v1h-1z M48,44h1v5h-1z M52,44h1v1h-1z M28,45h2v3h-2z M30,45h1v1h-1z M35,45h1v2h-1z M37,45h1v5h-1z M40,45h1v1h-1z M50,45h1v3h-1z M51,45h1v1h-1z M20,46h7v1h-7z M36,46h1v1h-1z M39,46h1v2h-1z M41,46h1v1h-1z M43,46h1v1h-1z M46,46h1v1h-1z M20,47h1v6h-1z M26,47h1v6h-1z M30,47h2v1h-2z M34,47h1v2h-1z M38,47h1v1h-1z M40,47h1v1h-1z M42,47h1v3h-1z M22,48h3v3h-3z M28,48h1v2h-1z M30,48h1v1h-1z M32,48h1v1h-1z M35,48h2v1h-2z M41,48h1v2h-1z M43,48h1v3h-1z M45,48h3v1h-3z M51,48h1v4h-1z M33,49h1v1h-1z M36,49h1v1h-1z M38,49h1v1h-1z M40,49h1v1h-1z M50,49h1v3h-1z M52,49h1v3h-1z M29,50h1v2h-1z M32,50h1v1h-1z M35,50h1v1h-1z M39,50h1v3h-1z M44,50h1v1h-1z M47,50h3v1h-3z M30,51h1v2h-1z M34,51h1v1h-1z M38,51h1v2h-1z M40,51h1v2h-1z M45,51h2v1h-2z M48,51h2v1h-2z M21,52h5v1h-5z M28,52h1v1h-1z M31,52h3v1h-3z M35,52h1v1h-1z M37,52h1v1h-1z M42,52h3v1h-3z M47,52h1v1h-1z" fill="#000000"/>
</svg>
