<?xml version="1.0" encoding="UTF-8"?>
<!DOCTYPE svg PUBLIC "-//W3C//DTD SVG 1.1//EN" "http://www.w3.org/Graphics/SVG/1.1/DTD/svg11.dtd">
<svg xmlns="http://www.w3.org/2000/svg" version="1.1" viewBox="0 0 73 73" stroke="none">
	<rect width="100%" height="100%" fill="#ffffff"/>
	<path d="M20,20h7v1h-7z M29,20h1v6h-1z M30,20h1v1h-1z M33,20h1v1h-1z M37,20h1v1h-1z M40,20h3v1h-3z M44,20h1v2h-1z M46,20h7v1h-7z M20,21h1v6h-1z M26,21h1v6h-1z M28,21h1v3h-1z M36,21h1v4h-1z M38,21h1v1h-1z M46,21h1v6h-1z M52,21h1v6h-1z M22,22h3v3h-3z M30,22h1v1h-1z M34,22h1v3h-1z M35,22h1v1h-1z M39,22h1v1h-1z M41,22h3v1h-3z M48,22h3v3h-3z M31,23h1v1h-1z M38,23h1v1h-1z M40,23h1v2h-1z M44,23h1v1h-1z M35,24h1v2h-1z M30,25h2v1h-2z M33,25h1v1h-1z M37,25h1v1h-1z M39,25h1v1h-1z M41,25h2v1h-2z M44,25h1v2h-1z M21,26h5v1h-5z M28,26h1v4h-1z M30,26h1v1h-1z M32,26h1v1h-1z M34,26h1v1h-1z M36,26h1v2h-1z M38,26h1v3h-1z M40,26h1v5h-1z M42,26h1v1h-1z M47,26h5v1h-5z M35,27h1v1h-1z M39,27h1v3h-1z M20,28h1v2h-1z M26,28h1v1h-1z M29,28h1v1h-1z M32,28h2v2h-2z M37,28h1v5h-1z M45,28h1v4h-1z M46,28h1v1h-1z M49,28h2v2h-2z M51,28h1v1h-1z M21,29h1v1h-1z M31,29h1v1h-1z M34,29h2v2h-2z M41,29h1v2h-1z M43,29h2v1h-2z M48,29h1v3h-1z M23,30h2v1h-2z M26,30h1v1h-1z M33,30h1v5h-1z M42,30h1v1h-1z M46,30h1v1h-1z M50,30h2v1h-2z M21,31h2v1h-2z M24,31h2v1h-2z M29,31h1v2h-1z M31,31h1v1h-1z M35,31h2v1h-2z M38,31h1v1h-1z M44,31h1v1h-1z M47,31h1v3h-1z M49,31h2v1h-2z M22,32h1v1h-1z M26,32h3v1h-3z M32,32h1v1h-1z M39,32h1v1h-1z M41,32h1v1h-1z M43,32h1v1h-1z M46,32h1v2h-1z M52,32h1v2h-1z M20,33h1v3h-1z M21,33h1v1h-1z M23,33h1v2h-1z M27,33h2v1h-2z M31,33h1v1h-1z M38,33h1v1h-1z M49,33h1v3h-1z M51,33h1v2h-1z M22,34h1v1h-1z M24,34h3v1h-3z M28,34h3v1h-3z M32,34h1v6h-1z M34,34h3v1h-3z M40,34h1v3h-1z M41,34h1v1h-1z M44,34h1v2h-1z M50,34h1v2h-1z M27,35h2v1h-2z M31,35h1v2h-1z M36,35h1v1h-1z M38,35h1v4h-1z M42,35h1v1h-1z M45,35h2v1h-2z M48,35h1v2h-1z M52,35h1v4h-1z M22,36h1v2h-1z M24,36h1v3h-1z M26,36h1v1h-1z M28,36h1v1h-1z M33,36h1v1h-1z M35,36h1v4h-1z M37,36h1v1h-1z M43,36h1v5h-1z M47,36h1v1h-1z M20,37h2v1h-2z M23,37h1v1h-1z M29,37h2v2h-2z M34,37h1v4h-1z M36,37h1v3h-1z M39,37h1v2h-1z M44,37h3v1h-3z M49,37h2v3h-2z M51,37h1v1h-1z M21,38h1v1h-1z M25,38h1v3h-1z M26,38h1v1h-1z M37,38h1v1h-1z M41,38h1v1h-1z M44,38h1v1h-1z M46,38h1v1h-1z M22,39h2v1h-2z M27,39h1v3h-1z M28,39h1v1h-1z M40,39h1v1h-1z M42,39h1v1h-1z M45,39h1v1h-1z M47,39h2v3h-2z M20,40h1v5h-1z M22,40h1v1h-1z M24,40h1v2h-1z M26,40h1v1h-1z M29,40h3v2h-3z M38,40h1v1h-1z M41,40h1v2h-1z M49,40h1v2h-1z M52,40h1v1h-1z M21,41h1v1h-1z M23,41h1v1h-1z M28,41h1v1h-1z M33,41h1v2h-1z M37,41h1v2h-1z M42,41h1v2h-1z M45,41h1v4h-1z M22,42h1v3h-1z M26,42h1v1h-1z M32,42h1v2h-1z M39,42h1v2h-1z M44,42h1v1h-1z M48,42h1v1h-1z M50,42h2v2h-2z M24,43h2v1h-2z M29,43h1v1h-1z M35,43h2v1h-2z M40,43h1v1h-1z M43,43h1v1h-1z M46,43h2v2h-2z M52,43h1v1h-1z M21,44h1v1h-1z M23,44h2v1h-2z M26,44h1v1h-1z M30,44h2v2h-2z M33,44h1v1h-1z M36,44h1v3h-1z M42,44h1v5h-1z M44,44h1v5h-1z M48,44h1v9h-1z M28,45h1v1h-1z M35,45h1v2h-1z M37,45h1v3h-1z M39,45h1v1h-1z M41,45h1v1h-1z M50,45h1v3h-1z M52,45h1v1h-1z M20,46h7v1h-7z M31,46h1v1h-1z M43,46h1v1h-1z M46,46h1v1h-1z M51,46h1v1h-1z M20,47h1v6h-1z M26,47h1v6h-1z M32,47h1v6h-1z M38,47h4v1h-4z M22,48h3v3h-3z M29,48h1v2h-1z M33,48h4v1h-4z M39,48h3v1h-3z M45,48h3v1h-3z M49,48h1v2h-1z M51,48h2v1h-2z M30,49h1v1h-1z M33,49h1v1h-1z M38,49h1v3h-1z M52,49h1v2h-1z M34,50h2v1h-2z M39,50h1v1h-1z M42,50h3v1h-3z M47,50h1v1h-1z M51,50h1v1h-1z M31,51h1v1h-1z M33,51h2v1h-2z M44,51h2v2h-2z M46,51h1v1h-1z M49,51h2v1h-2z M21,52h5v1h-5z M28,52h1v1h-1z M30,52h1v1h-1z M33,52h1v1h-1z M35,52h3v1h-3z M40,52h1v1h-1z M43,52h1v1h-1z M47,52h1v1h-1z M51,52h1v1h-1z" fill="#000000"/>
</svg>
